{
.appVersion = "3343";
.formatVersion = 3;
axes = (
{
name = Weight;
tag = wght;
}
);
date = "2025-06-22 16:38:40 +0000";
familyName = "Brodine Proportional";
fontMaster = (
{
id = "4ACDF8EE-0327-43CC-9DA5-AB7134B4FF12";
metricValues = (
{
over = 16;
pos = 700;
},
{
over = 16;
pos = 650;
},
{
over = 16;
pos = 450;
},
{
over = -16;
},
{
over = -16;
pos = -200;
},
{
}
);
name = "semi-bold";
userData = {
"Letterink-NibData" = {
AngleInDegrees = 45.00001;
MainAxisWidth = 30;
MinorAxisWidth = 15;
};
};
}
);
glyphs = (
{
glyphname = A;
lastChange = "2025-07-21 03:20:40 +0000";
layers = (
{
layerId = "4ACDF8EE-0327-43CC-9DA5-AB7134B4FF12";
shapes = (
{
closed = 1;
nodes = (
(133,0,l),
(364,650,l),
(253,650,l),
(21,0,l)
);
},
{
closed = 1;
nodes = (
(366,650,l),
(255,650,l),
(499,0,l),
(603,0,l)
);
},
{
closed = 1;
nodes = (
(465,181,l),
(465,280,l),
(176,280,l),
(176,181,l)
);
}
);
width = 624;
}
);
metricRight = "=|";
unicode = 65;
},
{
glyphname = AE;
lastChange = "2025-07-21 03:20:40 +0000";
layers = (
{
layerId = "4ACDF8EE-0327-43CC-9DA5-AB7134B4FF12";
shapes = (
{
closed = 1;
nodes = (
(375,650,l),
(484,650,l),
(484,197,ls),
(484,73,o),
(392,-16,o),
(274,-16,cs),
(146,-16,o),
(54,73,o),
(54,197,c),
(160,197,l),
(160,130,o),
(209,79,o),
(274,79,cs),
(338,79,o),
(375,130,o),
(375,197,cs)
);
}
);
width = 548;
}
);
metricRight = "=H";
unicode = 198;
},
{
glyphname = B;
lastChange = "2025-07-21 03:20:40 +0000";
layers = (
{
layerId = "4ACDF8EE-0327-43CC-9DA5-AB7134B4FF12";
shapes = (
{
closed = 1;
nodes = (
(64,0,l),
(344,0,ls),
(451,0,o),
(549,74,o),
(549,201,cs),
(549,272,o),
(506,335,o),
(440,370,c),
(470,399,o),
(489,437,o),
(489,479,cs),
(489,577,o),
(419,650,o),
(284,650,cs),
(64,650,l)
);
},
{
closed = 1;
nodes = (
(176,299,l),
(332,299,ls),
(394,299,o),
(439,257,o),
(439,201,cs),
(439,132,o),
(394,99,o),
(332,99,cs),
(176,99,l)
);
},
{
closed = 1;
nodes = (
(176,551,l),
(284,551,ls),
(353,551,o),
(379,514,o),
(379,477,cs),
(379,436,o),
(354,399,o),
(284,398,c),
(176,398,l)
);
}
);
width = 583;
}
);
metricLeft = "=H";
unicode = 66;
},
{
glyphname = C;
lastChange = "2025-07-21 03:20:40 +0000";
layers = (
{
layerId = "4ACDF8EE-0327-43CC-9DA5-AB7134B4FF12";
shapes = (
{
closed = 1;
nodes = (
(454,113,o),
(409,80,o),
(338,79,cs),
(232,80,o),
(150,154,o),
(150,325,cs),
(150,496,o),
(232,570,o),
(338,571,cs),
(409,570,o),
(454,537,o),
(493,475,c),
(578,539,l),
(526,627,o),
(438,666,o),
(338,666,cs),
(179,666,o),
(39,567,o),
(39,325,cs),
(39,83,o),
(179,-16,o),
(338,-16,cs),
(438,-16,o),
(526,23,o),
(578,111,c),
(493,175,l)
);
}
);
width = 598;
}
);
metricLeft = O;
unicode = 67;
},
{
glyphname = Ccaron;
lastChange = "2025-07-21 03:20:40 +0000";
layers = (
{
layerId = "4ACDF8EE-0327-43CC-9DA5-AB7134B4FF12";
shapes = (
{
closed = 1;
nodes = (
(495,174,l),
(482,109,o),
(415,80,o),
(338,79,cs),
(232,78,o),
(150,154,o),
(150,325,cs),
(150,496,o),
(232,572,o),
(338,571,cs),
(415,570,o),
(483,540,o),
(496,474,c),
(602,474,l),
(587,609,o),
(460,666,o),
(338,666,cs),
(179,666,o),
(39,567,o),
(39,325,cs),
(39,83,o),
(179,-16,o),
(338,-16,cs),
(459,-16,o),
(586,41,o),
(601,174,c)
);
}
);
width = 620;
}
);
unicode = 268;
},
{
glyphname = D;
lastChange = "2025-07-21 03:20:40 +0000";
layers = (
{
layerId = "4ACDF8EE-0327-43CC-9DA5-AB7134B4FF12";
shapes = (
{
closed = 1;
nodes = (
(64,0,l),
(176,0,l),
(176,650,l),
(64,650,l)
);
},
{
closed = 1;
nodes = (
(345,555,ls),
(458,555,o),
(539,470,o),
(539,323,cs),
(539,171,o),
(458,95,o),
(345,95,cs),
(78,95,l),
(78,0,l),
(347,0,ls),
(507,0,o),
(650,102,o),
(650,323,cs),
(650,538,o),
(507,650,o),
(347,650,cs),
(78,650,l),
(78,555,l)
);
}
);
width = 689;
}
);
metricLeft = "=H";
metricRight = "=O";
unicode = 68;
},
{
glyphname = E;
lastChange = "2025-07-21 03:20:40 +0000";
layers = (
{
layerId = "4ACDF8EE-0327-43CC-9DA5-AB7134B4FF12";
shapes = (
{
closed = 1;
nodes = (
(64,0,l),
(474,0,l),
(474,95,l),
(173,95,l),
(173,290,l),
(337,290,l),
(337,385,l),
(173,385,l),
(173,555,l),
(474,555,l),
(474,650,l),
(64,650,l)
);
}
);
width = 518;
}
);
metricLeft = "=H";
unicode = 69;
},
{
glyphname = F;
lastChange = "2025-07-21 03:20:40 +0000";
layers = (
{
layerId = "4ACDF8EE-0327-43CC-9DA5-AB7134B4FF12";
shapes = (
{
closed = 1;
nodes = (
(64,0,l),
(173,0,l),
(173,260,l),
(357,260,l),
(357,355,l),
(173,355,l),
(173,555,l),
(474,555,l),
(474,650,l),
(64,650,l)
);
}
);
width = 503;
}
);
metricLeft = "=H";
unicode = 70;
},
{
glyphname = G;
lastChange = "2025-07-21 03:20:40 +0000";
layers = (
{
layerId = "4ACDF8EE-0327-43CC-9DA5-AB7134B4FF12";
shapes = (
{
closed = 1;
nodes = (
(510,-2,l),
(619,-2,l),
(619,359,l),
(510,359,l)
);
},
{
closed = 1;
nodes = (
(619,264,l),
(619,359,l),
(394,359,l),
(394,264,l)
);
},
{
closed = 1;
nodes = (
(232,80,o),
(150,154,o),
(150,325,cs),
(150,496,o),
(232,570,o),
(338,571,cs),
(414,571,o),
(494,542,o),
(527,445,c),
(622,492,l),
(575,614,o),
(466,666,o),
(338,666,cs),
(179,666,o),
(39,567,o),
(39,325,cs),
(39,83,o),
(179,-16,o),
(338,-16,cs),
(473,-16,o),
(554,55,o),
(582,187,c),
(510,231,l),
(510,125,o),
(425,78,o),
(338,79,cs)
);
}
);
width = 686;
}
);
metricLeft = "=O";
metricRight = "=H";
unicode = 71;
},
{
glyphname = Gbreve;
lastChange = "2025-07-21 03:20:40 +0000";
layers = (
{
layerId = "4ACDF8EE-0327-43CC-9DA5-AB7134B4FF12";
shapes = (
{
closed = 1;
nodes = (
(510,-2,l),
(619,-2,l),
(619,326,l),
(510,326,l)
);
},
{
closed = 1;
nodes = (
(619,231,l),
(619,326,l),
(394,326,l),
(394,231,l)
);
},
{
closed = 1;
nodes = (
(232,80,o),
(150,154,o),
(150,325,cs),
(150,496,o),
(240,571,o),
(351,571,cs),
(458,571,o),
(512,498,o),
(512,445,c),
(619,445,l),
(619,573,o),
(474,666,o),
(351,666,cs),
(187,666,o),
(39,567,o),
(39,325,cs),
(39,83,o),
(179,-16,o),
(338,-16,cs),
(473,-16,o),
(554,55,o),
(582,187,c),
(510,231,l),
(510,125,o),
(425,78,o),
(338,79,cs)
);
}
);
width = 686;
}
);
metricLeft = O;
metricRight = H;
unicode = 286;
},
{
glyphname = H;
lastChange = "2025-07-21 03:55:52 +0000";
layers = (
{
layerId = "4ACDF8EE-0327-43CC-9DA5-AB7134B4FF12";
shapes = (
{
closed = 1;
nodes = (
(22,5,l),
(215,5,l),
(215,650,l),
(22,650,l)
);
},
{
closed = 1;
nodes = (
(473,5,l),
(666,5,l),
(666,650,l),
(473,650,l)
);
},
{
closed = 1;
nodes = (
(565,247,l),
(565,426,l),
(48,426,l),
(48,247,l)
);
}
);
width = 688;
}
);
metricRight = "=|";
unicode = 72;
},
{
glyphname = I;
lastChange = "2025-07-21 03:20:40 +0000";
layers = (
{
layerId = "4ACDF8EE-0327-43CC-9DA5-AB7134B4FF12";
shapes = (
{
closed = 1;
nodes = (
(64,650,l),
(64,0,l),
(173,0,l),
(173,650,l)
);
}
);
width = 237;
}
);
metricLeft = H;
metricRight = H;
unicode = 73;
},
{
glyphname = J;
lastChange = "2025-07-21 03:20:40 +0000";
layers = (
{
layerId = "4ACDF8EE-0327-43CC-9DA5-AB7134B4FF12";
shapes = (
{
closed = 0;
nodes = (
(400,231,l),
(400,652,l)
);
},
{
closed = 1;
nodes = (
(400,652,l),
(291,650,l),
(291,234,ls),
(291,116,o),
(230,79,o),
(154,79,cs),
(115,79,o),
(87,93,o),
(59,112,c),
(10,33,l),
(50,1,o),
(101,-16,o),
(164,-16,cs),
(308,-16,o),
(400,48,o),
(400,231,cs)
);
}
);
width = 464;
}
);
metricRight = "=H";
unicode = 74;
},
{
glyphname = K;
lastChange = "2025-07-21 03:20:40 +0000";
layers = (
{
layerId = "4ACDF8EE-0327-43CC-9DA5-AB7134B4FF12";
shapes = (
{
closed = 1;
nodes = (
(64,1,l),
(173,1,l),
(173,650,l),
(64,650,l)
);
},
{
closed = 1;
nodes = (
(591,0,l),
(334,407,l),
(207,407,l),
(464,0,l)
);
},
{
closed = 1;
nodes = (
(68,206,l),
(164,206,l),
(543,650,l),
(412,650,l),
(68,243,l)
);
}
);
width = 621;
}
);
metricLeft = "=H";
unicode = 75;
},
{
glyphname = L;
lastChange = "2025-07-21 03:20:40 +0000";
layers = (
{
layerId = "4ACDF8EE-0327-43CC-9DA5-AB7134B4FF12";
shapes = (
{
closed = 1;
nodes = (
(64,2,l),
(68,2,l),
(68,0,l),
(447,0,l),
(447,95,l),
(173,95,l),
(173,650,l),
(64,650,l)
);
}
);
width = 493;
}
);
metricLeft = "=H";
unicode = 76;
},
{
glyphname = M;
lastChange = "2025-07-21 03:20:40 +0000";
layers = (
{
layerId = "4ACDF8EE-0327-43CC-9DA5-AB7134B4FF12";
shapes = (
{
closed = 1;
nodes = (
(456,0,l),
(631,392,l),
(631,1,l),
(740,1,l),
(740,650,l),
(631,650,l),
(402,130,l),
(173,650,l),
(64,650,l),
(64,1,l),
(173,1,l),
(173,392,l),
(348,0,l)
);
}
);
width = 804;
}
);
metricLeft = H;
metricRight = H;
unicode = 77;
},
{
glyphname = N;
lastChange = "2025-07-21 03:20:40 +0000";
layers = (
{
layerId = "4ACDF8EE-0327-43CC-9DA5-AB7134B4FF12";
shapes = (
{
closed = 1;
nodes = (
(64,0,l),
(173,0,l),
(173,466,l),
(491,0,l),
(600,0,l),
(600,650,l),
(491,650,l),
(491,184,l),
(173,650,l),
(64,650,l)
);
}
);
width = 664;
}
);
metricLeft = H;
metricRight = H;
unicode = 78;
},
{
glyphname = O;
lastChange = "2025-07-21 03:20:40 +0000";
layers = (
{
layerId = "4ACDF8EE-0327-43CC-9DA5-AB7134B4FF12";
shapes = (
{
closed = 1;
nodes = (
(150,496,o),
(232,570,o),
(338,571,cs),
(444,570,o),
(526,496,o),
(526,325,cs),
(526,154,o),
(444,80,o),
(338,79,cs),
(232,80,o),
(150,154,o),
(150,325,cs)
);
},
{
closed = 1;
nodes = (
(39,83,o),
(179,-16,o),
(338,-16,cs),
(498,-16,o),
(637,83,o),
(637,325,cs),
(637,567,o),
(498,666,o),
(338,666,cs),
(179,666,o),
(39,567,o),
(39,325,cs)
);
}
);
width = 676;
}
);
metricRight = "=|";
unicode = 79;
},
{
glyphname = P;
lastChange = "2025-07-21 03:20:40 +0000";
layers = (
{
layerId = "4ACDF8EE-0327-43CC-9DA5-AB7134B4FF12";
shapes = (
{
closed = 1;
nodes = (
(173,0,l),
(173,650,l),
(64,650,l),
(64,0,l)
);
},
{
closed = 1;
nodes = (
(115,206,l),
(262,206,ls),
(373,206,o),
(486,282,o),
(486,429,cs),
(486,576,o),
(373,650,o),
(262,650,cs),
(115,650,l),
(115,555,l),
(252,555,ls),
(317,555,o),
(375,510,o),
(375,429,cs),
(375,348,o),
(317,301,o),
(252,301,cs),
(115,301,l)
);
}
);
width = 499;
}
);
metricLeft = "=H";
unicode = 80;
},
{
glyphname = Q;
lastChange = "2025-07-21 03:20:40 +0000";
layers = (
{
layerId = "4ACDF8EE-0327-43CC-9DA5-AB7134B4FF12";
shapes = (
{
closed = 1;
nodes = (
(150,496,o),
(232,570,o),
(338,571,cs),
(444,570,o),
(526,496,o),
(526,325,cs),
(526,154,o),
(444,80,o),
(338,79,cs),
(232,80,o),
(150,154,o),
(150,325,cs)
);
},
{
closed = 1;
nodes = (
(39,83,o),
(179,-16,o),
(338,-16,cs),
(498,-16,o),
(637,83,o),
(637,325,cs),
(637,567,o),
(498,666,o),
(338,666,cs),
(179,666,o),
(39,567,o),
(39,325,cs)
);
},
{
closed = 1;
nodes = (
(442,96,l),
(567,-54,l),
(651,16,l),
(526,166,l)
);
}
);
width = 676;
}
);
metricLeft = "=O";
metricRight = "=O-14";
unicode = 81;
},
{
glyphname = R;
lastChange = "2025-07-21 03:20:40 +0000";
layers = (
{
layerId = "4ACDF8EE-0327-43CC-9DA5-AB7134B4FF12";
shapes = (
{
closed = 1;
nodes = (
(245,298,l),
(391,0,l),
(508,0,l),
(352,298,l)
);
},
{
closed = 1;
nodes = (
(176,0,l),
(176,650,l),
(64,650,l),
(64,0,l)
);
},
{
closed = 1;
nodes = (
(78,226,l),
(285,226,ls),
(396,226,o),
(509,302,o),
(509,439,cs),
(509,576,o),
(396,650,o),
(285,650,cs),
(78,650,l),
(78,551,l),
(285,551,ls),
(340,551,o),
(398,500,o),
(398,439,cs),
(398,378,o),
(340,325,o),
(285,325,cs),
(78,325,l)
);
}
);
width = 553;
}
);
metricLeft = "=H";
unicode = 82;
},
{
glyphname = S;
lastChange = "2025-07-21 03:20:40 +0000";
layers = (
{
layerId = "4ACDF8EE-0327-43CC-9DA5-AB7134B4FF12";
shapes = (
{
closed = 1;
nodes = (
(153,665,o),
(46,616,o),
(46,481,cs),
(46,386,o),
(125,331,o),
(177,309,cs),
(238,284,ls),
(288,262,o),
(354,244,o),
(354,176,cs),
(354,126,o),
(322,84,o),
(235,84,cs),
(180,84,o),
(141,100,o),
(95,135,c),
(37,61,l),
(94,14,o),
(162,-15,o),
(249,-15,cs),
(351,-15,o),
(468,51,o),
(468,181,cs),
(468,285,o),
(404,330,o),
(306,372,cs),
(246,397,ls),
(193,419,o),
(160,452,o),
(160,487,cs),
(160,545,o),
(200,566,o),
(248,566,cs),
(294,566,o),
(342,557,o),
(378,527,c),
(423,608,l),
(385,640,o),
(327,665,o),
(240,665,cs)
);
}
);
width = 505;
}
);
unicode = 83;
},
{
glyphname = T;
lastChange = "2025-07-21 03:20:40 +0000";
layers = (
{
layerId = "4ACDF8EE-0327-43CC-9DA5-AB7134B4FF12";
shapes = (
{
closed = 1;
nodes = (
(21,650,l),
(21,555,l),
(202,555,l),
(202,2,l),
(311,2,l),
(311,555,l),
(492,555,l),
(492,650,l)
);
}
);
width = 496;
}
);
unicode = 84;
},
{
glyphname = U;
lastChange = "2025-07-21 03:20:40 +0000";
layers = (
{
layerId = "4ACDF8EE-0327-43CC-9DA5-AB7134B4FF12";
shapes = (
{
closed = 1;
nodes = (
(485,650,l),
(594,650,l),
(594,257,ls),
(594,73,o),
(502,-16,o),
(324,-16,cs),
(146,-16,o),
(54,73,o),
(54,257,cs),
(54,650,l),
(163,650,l),
(163,257,ls),
(163,130,o),
(219,79,o),
(324,79,cs),
(429,79,o),
(485,130,o),
(485,257,cs)
);
}
);
width = 648;
}
);
metricLeft = "=H-10";
metricRight = "=|";
unicode = 85;
},
{
glyphname = V;
lastChange = "2025-07-21 03:20:40 +0000";
layers = (
{
layerId = "4ACDF8EE-0327-43CC-9DA5-AB7134B4FF12";
shapes = (
{
closed = 1;
nodes = (
(242,0,l),
(329,0,l),
(566,650,l),
(456,650,l),
(266,98,l),
(305,98,l),
(115,650,l),
(5,650,l)
);
}
);
width = 571;
}
);
unicode = 86;
},
{
glyphname = W;
lastChange = "2025-07-21 03:20:40 +0000";
layers = (
{
layerId = "4ACDF8EE-0327-43CC-9DA5-AB7134B4FF12";
shapes = (
{
closed = 1;
nodes = (
(178,0,l),
(269,0,l),
(423,522,l),
(387,521,l),
(548,0,l),
(639,0,l),
(809,650,l),
(704,650,l),
(575,133,l),
(611,133,l),
(455,650,l),
(354,650,l),
(206,133,l),
(244,133,l),
(115,650,l),
(10,650,l)
);
}
);
width = 819;
}
);
unicode = 87;
},
{
glyphname = X;
lastChange = "2025-07-21 03:20:40 +0000";
layers = (
{
layerId = "4ACDF8EE-0327-43CC-9DA5-AB7134B4FF12";
shapes = (
{
closed = 1;
nodes = (
(141,650,l),
(34,650,l),
(445,1,l),
(551,1,l)
);
},
{
closed = 1;
nodes = (
(316,307,l),
(516,650,l),
(402,650,l),
(261,408,l)
);
},
{
closed = 1;
nodes = (
(251,408,l),
(19,1,l),
(125,1,l),
(306,307,l)
);
}
);
width = 570;
}
);
metricRight = "=|";
unicode = 88;
},
{
glyphname = Y;
lastChange = "2025-07-21 03:20:40 +0000";
layers = (
{
layerId = "4ACDF8EE-0327-43CC-9DA5-AB7134B4FF12";
shapes = (
{
closed = 1;
nodes = (
(185,259,l),
(185,0,l),
(294,0,l),
(294,259,l),
(474,650,l),
(365,650,l),
(231,327,l),
(250,327,l),
(115,650,l),
(5,650,l)
);
}
);
width = 479;
}
);
metricRight = "=|";
unicode = 89;
},
{
glyphname = Z;
lastChange = "2025-07-21 03:20:40 +0000";
layers = (
{
layerId = "4ACDF8EE-0327-43CC-9DA5-AB7134B4FF12";
shapes = (
{
closed = 1;
nodes = (
(64,95,l),
(187,95,l),
(498,555,l),
(375,555,l)
);
},
{
closed = 1;
nodes = (
(64,95,l),
(64,0,l),
(498,0,l),
(498,95,l)
);
},
{
closed = 1;
nodes = (
(64,650,l),
(64,555,l),
(498,555,l),
(498,650,l)
);
}
);
width = 562;
}
);
metricLeft = H;
metricRight = "=|";
unicode = 90;
},
{
glyphname = a;
lastChange = "2025-07-21 03:20:40 +0000";
layers = (
{
layerId = "4ACDF8EE-0327-43CC-9DA5-AB7134B4FF12";
shapes = (
{
closed = 1;
nodes = (
(212,280,ls),
(75,280,o),
(44,195,o),
(44,122,cs),
(44,62,o),
(96,-17,o),
(206,-17,cs),
(277,-17,o),
(323,11,o),
(340,52,c),
(331,155,l),
(317,85,o),
(268,60,o),
(226,60,cs),
(177,60,o),
(136,82,o),
(136,132,cs),
(136,178,o),
(167,202,o),
(235,202,c),
(331,202,l),
(331,280,l)
);
},
{
closed = 1;
nodes = (
(118,325,l),
(136,342,o),
(172,379,o),
(233,379,cs),
(274,379,o),
(331,373,o),
(331,312,cs),
(330,56,l),
(340,52,l),
(343,52,l),
(357,0,l),
(436,0,l),
(437,314,ls),
(437,428,o),
(344,466,o),
(239,466,cs),
(165,466,o),
(105,440,o),
(61,390,c)
);
}
);
width = 502;
}
);
metricRight = n;
unicode = 97;
},
{
glyphname = b;
lastChange = "2025-07-21 03:20:40 +0000";
layers = (
{
layerId = "4ACDF8EE-0327-43CC-9DA5-AB7134B4FF12";
shapes = (
{
closed = 1;
nodes = (
(388,-16,o),
(488,56,o),
(488,223,cs),
(488,400,o),
(388,463,o),
(281,463,cs),
(202,463,o),
(110,423,o),
(110,263,c),
(115,213,l),
(115,46,o),
(182,-16,o),
(281,-16,cs)
);
},
{
closed = 1;
nodes = (
(134,0,l),
(147,43,l),
(170,43,l),
(170,150,l),
(116,248,l),
(170,299,l),
(170,700,l),
(64,700,l),
(64,550,o),
(64,150,o),
(64,0,c)
);
},
{
closed = 1;
nodes = (
(214,70,o),
(167,116,o),
(166,223,c),
(167,340,o),
(214,377,o),
(272,377,cs),
(326,377,o),
(383,339,o),
(383,223,cs),
(383,116,o),
(326,70,o),
(272,70,cs)
);
}
);
width = 527;
}
);
metricLeft = n;
metricRight = o;
unicode = 98;
},
{
glyphname = c;
lastChange = "2025-07-21 03:20:40 +0000";
layers = (
{
layerId = "4ACDF8EE-0327-43CC-9DA5-AB7134B4FF12";
shapes = (
{
closed = 1;
nodes = (
(145,331,o),
(185,378,o),
(248,378,cs),
(294,378,o),
(317,367,o),
(347,320,c),
(418,373,l),
(389,435,o),
(320,466,o),
(248,466,cs),
(137,466,o),
(39,394,o),
(39,225,cs),
(39,56,o),
(137,-16,o),
(248,-16,cs),
(320,-16,o),
(389,15,o),
(418,77,c),
(347,130,l),
(318,92,o),
(294,72,o),
(248,72,cs),
(185,72,o),
(145,119,o),
(145,225,cs)
);
}
);
width = 441;
}
);
metricLeft = "=o";
unicode = 99;
},
{
glyphname = d;
lastChange = "2025-07-21 03:55:52 +0000";
layers = (
{
layerId = "4ACDF8EE-0327-43CC-9DA5-AB7134B4FF12";
shapes = (
{
closed = 1;
nodes = (
(327,186,l),
(431,285,l),
(310,200,l),
(329,41,l),
(362,41,l),
(375,-2,l),
(518,-2,l),
(518,138,o),
(518,558,o),
(518,698,c),
(329,698,l)
);
},
{
closed = 1;
nodes = (
(399,440,o),
(307,461,o),
(241,461,cs),
(142,461,o),
(54,408,o),
(54,220,cs),
(54,58,o),
(141,-19,o),
(241,-19,cs),
(395,-19,o),
(385,149,o),
(385,201,c),
(399,261,l)
);
},
{
closed = 1;
nodes = (
(242,306,o),
(259,302,o),
(265,302,cs),
(285,302,o),
(338,323,o),
(336,223,cs),
(325,253,o),
(326,140,o),
(265,140,cs),
(259,140,o),
(242,159,o),
(242,220,cs)
);
}
);
width = 527;
}
);
metricLeft = o;
metricRight = n;
unicode = 100;
},
{
glyphname = f;
lastChange = "2025-07-21 03:20:40 +0000";
layers = (
{
layerId = "4ACDF8EE-0327-43CC-9DA5-AB7134B4FF12";
shapes = (
{
closed = 1;
nodes = (
(147,650,o),
(101,618,o),
(101,531,cs),
(101,0,l),
(207,0,l),
(207,521,ls),
(207,547,o),
(217,562,o),
(250,562,cs),
(313,562,l),
(313,650,l),
(220,650,ls)
);
},
{
closed = 1;
nodes = (
(313,355,l),
(313,450,l),
(15,450,l),
(15,355,l)
);
}
);
width = 328;
}
);
unicode = 102;
},
{
glyphname = g;
lastChange = "2025-07-21 03:22:15 +0000";
layers = (
{
layerId = "4ACDF8EE-0327-43CC-9DA5-AB7134B4FF12";
shapes = (
{
closed = 1;
nodes = (
(358,-86,o),
(299,-122,o),
(230,-122,cs),
(189,-122,o),
(148,-100,o),
(126,-70,c),
(63,-141,l),
(85,-180,o),
(159,-214,o),
(234,-214,cs),
(347,-214,o),
(464,-157,o),
(464,0,c),
(358,0,l)
);
},
{
closed = 1;
nodes = (
(464,0,l),
(464,150,o),
(464,300,o),
(464,450,c),
(394,450,l),
(381,407,l),
(358,407,l),
(358,300,l),
(412,202,l),
(358,151,l),
(358,0,l)
);
},
{
closed = 1;
nodes = (
(413,237,l),
(413,404,o),
(346,466,o),
(247,466,cs),
(140,466,o),
(39,394,o),
(39,227,cs),
(39,50,o),
(140,-13,o),
(247,-13,cs),
(326,-13,o),
(418,27,o),
(418,187,c)
);
},
{
closed = 1;
nodes = (
(145,334,o),
(202,380,o),
(256,380,cs),
(314,380,o),
(361,334,o),
(362,227,cs),
(361,110,o),
(314,73,o),
(256,73,cs),
(202,73,o),
(145,111,o),
(145,227,cs)
);
}
);
width = 528;
}
);
metricLeft = o;
unicode = 103;
},
{
glyphname = gbreve;
lastChange = "2025-07-21 03:20:40 +0000";
layers = (
{
layerId = "4ACDF8EE-0327-43CC-9DA5-AB7134B4FF12";
shapes = (
{
closed = 1;
nodes = (
(367,-210,o),
(466,-158,o),
(466,-61,cs),
(466,16,o),
(420,88,o),
(317,88,cs),
(191,88,ls),
(88,88,o),
(42,16,o),
(42,-61,cs),
(42,-152,o),
(121,-210,o),
(254,-210,cs)
);
},
{
closed = 1;
nodes = (
(158,-122,o),
(148,-87,o),
(148,-61,cs),
(148,-25,o),
(158,0,o),
(211,0,cs),
(307,0,ls),
(350,0,o),
(360,-25,o),
(360,-61,cs),
(360,-87,o),
(350,-122,o),
(254,-122,cs)
);
},
{
closed = 1;
nodes = (
(306,0,l),
(306,88,l),
(222,88,ls),
(148,88,o),
(142,121,o),
(173,153,cs),
(215,200,l),
(150,259,l),
(87,190,ls),
(38,136,o),
(32,0,o),
(174,0,cs)
);
},
{
closed = 1;
nodes = (
(333,141,o),
(416,187,o),
(416,303,cs),
(416,410,o),
(333,466,o),
(240,466,cs),
(148,466,o),
(65,411,o),
(65,303,cs),
(65,187,o),
(148,141,o),
(240,141,cs)
);
},
{
closed = 1;
nodes = (
(194,229,o),
(165,258,o),
(165,303,cs),
(165,338,o),
(194,378,o),
(240,378,cs),
(287,378,o),
(316,339,o),
(316,304,cs),
(316,259,o),
(287,229,o),
(240,229,cs)
);
},
{
closed = 1;
nodes = (
(352,494,o),
(306,462,o),
(306,375,cs),
(306,357,l),
(383,357,l),
(383,367,ls),
(383,401,o),
(400,421,o),
(450,421,cs),
(466,421,l),
(466,494,l),
(425,494,ls)
);
}
);
width = 486;
}
);
unicode = 287;
},
{
glyphname = h;
lastChange = "2025-07-21 03:20:40 +0000";
layers = (
{
layerId = "4ACDF8EE-0327-43CC-9DA5-AB7134B4FF12";
shapes = (
{
closed = 1;
nodes = (
(360,0,l),
(466,0,l),
(466,312,ls),
(466,432,o),
(392,466,o),
(301,466,cs),
(148,466,o),
(106,333,o),
(99,213,c),
(170,213,l),
(171,316,o),
(186,380,o),
(274,380,cs),
(328,380,o),
(360,364,o),
(360,292,cs)
);
},
{
closed = 1;
nodes = (
(170,700,l),
(64,700,l),
(64,0,l),
(170,0,l)
);
}
);
width = 530;
}
);
metricLeft = n;
unicode = 104;
},
{
glyphname = i;
lastChange = "2025-07-21 03:22:15 +0000";
layers = (
{
layerId = "4ACDF8EE-0327-43CC-9DA5-AB7134B4FF12";
shapes = (
{
closed = 1;
nodes = (
(156,532,o),
(178,556,o),
(178,595,cs),
(178,633,o),
(156,656,o),
(116,656,cs),
(76,656,o),
(54,633,o),
(54,595,cs),
(54,556,o),
(76,532,o),
(116,532,cs)
);
},
{
closed = 1;
nodes = (
(64,450,l),
(64,0,l),
(170,0,l),
(170,450,l)
);
}
);
width = 232;
}
);
metricLeft = "=n-10";
metricRight = "=|";
unicode = 105;
},
{
glyphname = igrave;
lastChange = "2025-07-21 03:20:40 +0000";
layers = (
{
layerId = "4ACDF8EE-0327-43CC-9DA5-AB7134B4FF12";
shapes = (
{
closed = 1;
nodes = (
(166,532,o),
(188,556,o),
(188,595,cs),
(188,633,o),
(166,656,o),
(126,656,cs),
(86,656,o),
(64,633,o),
(64,595,cs),
(64,556,o),
(86,532,o),
(126,532,cs)
);
},
{
closed = 1;
nodes = (
(74,450,l),
(74,402,l),
(73,402,l),
(73,119,ls),
(73,32,o),
(119,0,o),
(192,0,cs),
(285,0,l),
(285,88,l),
(222,88,ls),
(189,88,o),
(179,103,o),
(179,129,cs),
(179,240,l),
(180,240,l),
(180,450,l)
);
}
);
width = 243;
}
);
metricLeft = "=n";
metricRight = "=n-106";
unicode = 236;
},
{
glyphname = j;
lastChange = "2025-07-21 03:20:40 +0000";
layers = (
{
layerId = "4ACDF8EE-0327-43CC-9DA5-AB7134B4FF12";
shapes = (
{
closed = 1;
nodes = (
(152,539,o),
(178,565,o),
(178,602,cs),
(178,638,o),
(152,663,o),
(116,663,c),
(79,663,o),
(54,638,o),
(54,602,cs),
(54,565,o),
(79,539,o),
(116,539,cs)
);
},
{
closed = 1;
nodes = (
(64,-71,ls),
(64,-97,o),
(54,-112,o),
(21,-112,cs),
(-42,-112,l),
(-42,-200,l),
(51,-200,ls),
(124,-200,o),
(170,-168,o),
(170,-81,cs),
(170,450,l),
(64,450,l)
);
}
);
width = 232;
}
);
metricLeft = "=n-106";
metricRight = "=i";
unicode = 106;
},
{
glyphname = k;
lastChange = "2025-07-21 03:20:40 +0000";
layers = (
{
layerId = "4ACDF8EE-0327-43CC-9DA5-AB7134B4FF12";
shapes = (
{
closed = 1;
nodes = (
(64,0,l),
(170,0,l),
(170,700,l),
(64,700,l)
);
},
{
closed = 1;
nodes = (
(270,289,l),
(152,289,l),
(349,0,l),
(469,0,l)
);
},
{
closed = 1;
nodes = (
(92,167,l),
(169,162,l),
(444,450,l),
(310,450,l),
(92,217,l)
);
}
);
width = 479;
}
);
metricLeft = n;
unicode = 107;
},
{
glyphname = l;
lastChange = "2025-07-21 03:20:40 +0000";
layers = (
{
layerId = "4ACDF8EE-0327-43CC-9DA5-AB7134B4FF12";
shapes = (
{
closed = 1;
nodes = (
(64,700,l),
(64,0,l),
(170,0,l),
(170,700,l)
);
}
);
width = 234;
}
);
metricLeft = "=n";
metricRight = "=n";
unicode = 108;
},
{
glyphname = lslash;
lastChange = "2025-07-21 03:20:40 +0000";
layers = (
{
layerId = "4ACDF8EE-0327-43CC-9DA5-AB7134B4FF12";
shapes = (
{
closed = 1;
nodes = (
(276,0,l),
(276,88,l),
(213,88,ls),
(180,88,o),
(170,103,o),
(170,129,cs),
(170,700,l),
(64,700,l),
(64,119,ls),
(64,32,o),
(110,0,o),
(183,0,cs)
);
}
);
width = 234;
}
);
metricLeft = "=l";
metricRight = "=l-106";
unicode = 322;
},
{
glyphname = m;
lastChange = "2025-07-21 03:20:40 +0000";
layers = (
{
layerId = "4ACDF8EE-0327-43CC-9DA5-AB7134B4FF12";
shapes = (
{
closed = 1;
nodes = (
(358,0,l),
(464,0,l),
(464,306,ls),
(464,432,o),
(384,466,o),
(301,466,cs),
(161,466,o),
(111,323,o),
(105,213,c),
(170,233,l),
(175,336,o),
(190,380,o),
(274,380,cs),
(320,380,o),
(358,364,o),
(358,286,cs)
);
},
{
closed = 1;
nodes = (
(170,404,l),
(163,404,l),
(150,450,l),
(64,450,l),
(64,0,l),
(170,0,l)
);
},
{
closed = 1;
nodes = (
(648,0,l),
(754,0,l),
(754,306,ls),
(754,432,o),
(674,466,o),
(589,466,cs),
(449,466,o),
(401,323,o),
(395,213,c),
(464,213,l),
(465,316,o),
(478,380,o),
(562,380,cs),
(610,380,o),
(648,364,o),
(648,286,cs)
);
}
);
width = 818;
}
);
metricLeft = "=n";
metricRight = "=n";
unicode = 109;
},
{
glyphname = n;
lastChange = "2025-07-21 03:55:52 +0000";
layers = (
{
layerId = "4ACDF8EE-0327-43CC-9DA5-AB7134B4FF12";
shapes = (
{
closed = 1;
nodes = (
(379,0,l),
(569,0,l),
(569,264,ls),
(569,445,o),
(489,466,o),
(352,466,cs),
(269,466,o),
(130,240,o),
(114,138,c),
(277,191,l),
(274,245,o),
(294,301,o),
(335,301,cs),
(370,301,o),
(379,302,o),
(379,256,cs)
);
},
{
closed = 1;
nodes = (
(277,398,l),
(258,398,l),
(248,450,l),
(87,450,l),
(87,0,l),
(277,0,l)
);
}
);
width = 656;
}
);
unicode = 110;
},
{
glyphname = o;
lastChange = "2025-07-21 03:55:52 +0000";
layers = (
{
layerId = "4ACDF8EE-0327-43CC-9DA5-AB7134B4FF12";
shapes = (
{
closed = 1;
nodes = (
(395,-19,o),
(513,58,o),
(513,225,cs),
(513,393,o),
(396,469,o),
(284,469,cs),
(174,469,o),
(54,395,o),
(54,225,cs),
(54,58,o),
(173,-19,o),
(284,-19,cs)
);
},
{
closed = 1;
nodes = (
(254,145,o),
(229,167,o),
(229,225,cs),
(229,282,o),
(254,305,o),
(284,305,cs),
(313,305,o),
(338,282,o),
(338,225,cs),
(338,167,o),
(313,145,o),
(284,145,cs)
);
}
);
width = 567;
}
);
unicode = 111;
},
{
glyphname = p;
lastChange = "2025-07-21 03:20:40 +0000";
layers = (
{
layerId = "4ACDF8EE-0327-43CC-9DA5-AB7134B4FF12";
shapes = (
{
closed = 1;
nodes = (
(170,151,l),
(116,202,l),
(170,300,l),
(170,407,l),
(147,407,l),
(134,450,l),
(64,450,l),
(64,-200,l),
(170,-200,l)
);
},
{
closed = 1;
nodes = (
(110,27,o),
(202,-13,o),
(281,-13,cs),
(388,-13,o),
(478,50,o),
(478,227,cs),
(478,394,o),
(388,466,o),
(281,466,cs),
(182,466,o),
(115,404,o),
(115,237,c),
(110,187,l)
);
},
{
closed = 1;
nodes = (
(383,111,o),
(326,73,o),
(272,73,cs),
(214,73,o),
(167,110,o),
(166,227,c),
(167,334,o),
(214,380,o),
(272,380,cs),
(326,380,o),
(383,334,o),
(383,227,cs)
);
}
);
width = 517;
}
);
metricLeft = "=n";
metricRight = "=o";
unicode = 112;
},
{
glyphname = q;
lastChange = "2025-07-21 03:20:40 +0000";
layers = (
{
layerId = "4ACDF8EE-0327-43CC-9DA5-AB7134B4FF12";
shapes = (
{
closed = 1;
nodes = (
(402,237,l),
(402,404,o),
(335,466,o),
(236,466,cs),
(129,466,o),
(39,394,o),
(39,227,cs),
(39,50,o),
(129,-13,o),
(236,-13,cs),
(315,-13,o),
(407,27,o),
(407,187,c)
);
},
{
closed = 1;
nodes = (
(134,334,o),
(191,380,o),
(245,380,cs),
(303,380,o),
(350,334,o),
(351,227,c),
(350,110,o),
(303,73,o),
(245,73,cs),
(191,73,o),
(134,111,o),
(134,227,cs)
);
},
{
closed = 1;
nodes = (
(453,-200,l),
(453,450,l),
(383,450,l),
(370,407,l),
(347,407,l),
(347,300,l),
(401,202,l),
(347,151,l),
(347,-200,l)
);
}
);
width = 517;
}
);
metricLeft = "=o";
metricRight = "=n";
unicode = 113;
},
{
glyphname = r;
lastChange = "2025-07-21 03:20:40 +0000";
layers = (
{
layerId = "4ACDF8EE-0327-43CC-9DA5-AB7134B4FF12";
shapes = (
{
closed = 1;
nodes = (
(347,355,l),
(347,450,l),
(299,450,l),
(167,450,o),
(89,362,o),
(88,219,c),
(170,249,l),
(170,331,o),
(231,355,o),
(299,355,c)
);
},
{
closed = 1;
nodes = (
(170,401,l),
(147,401,l),
(134,450,l),
(64,450,l),
(64,0,l),
(170,0,l)
);
}
);
width = 372;
}
);
metricLeft = n;
unicode = 114;
},
{
glyphname = s;
lastChange = "2025-07-21 03:20:40 +0000";
layers = (
{
layerId = "4ACDF8EE-0327-43CC-9DA5-AB7134B4FF12";
shapes = (
{
closed = 1;
nodes = (
(132,466,o),
(56,422,o),
(56,336,cs),
(56,255,o),
(110,219,o),
(162,196,cs),
(218,171,o),
(259,165,o),
(259,118,cs),
(259,79,o),
(222,71,o),
(179,72,cs),
(134,73,o),
(96,96,o),
(88,105,c),
(25,38,l),
(60,5,o),
(108,-16,o),
(182,-16,cs),
(254,-16,o),
(359,13,o),
(359,130,cs),
(359,211,o),
(307,243,o),
(264,264,cs),
(209,290,o),
(155,299,o),
(155,344,cs),
(155,370,o),
(173,378,o),
(201,378,cs),
(228,378,o),
(255,370,o),
(291,343,c),
(340,415,l),
(311,444,o),
(247,466,o),
(197,466,cs)
);
}
);
width = 398;
}
);
unicode = 115;
},
{
glyphname = t;
lastChange = "2025-07-21 03:20:40 +0000";
layers = (
{
layerId = "4ACDF8EE-0327-43CC-9DA5-AB7134B4FF12";
shapes = (
{
closed = 1;
nodes = (
(303,356,l),
(303,450,l),
(5,450,l),
(5,355,l)
);
},
{
closed = 1;
nodes = (
(303,0,l),
(303,88,l),
(240,88,ls),
(207,88,o),
(197,103,o),
(197,129,cs),
(197,549,l),
(91,549,l),
(91,119,ls),
(91,32,o),
(137,0,o),
(210,0,cs)
);
}
);
width = 336;
}
);
unicode = 116;
},
{
glyphname = u;
lastChange = "2025-07-21 03:20:40 +0000";
layers = (
{
layerId = "4ACDF8EE-0327-43CC-9DA5-AB7134B4FF12";
shapes = (
{
closed = 1;
nodes = (
(170,450,l),
(64,450,l),
(64,144,ls),
(64,18,o),
(144,-16,o),
(229,-16,cs),
(369,-16,o),
(419,127,o),
(425,237,c),
(356,237,l),
(355,134,o),
(340,70,o),
(256,70,cs),
(208,70,o),
(170,86,o),
(170,164,cs)
);
},
{
closed = 1;
nodes = (
(356,56,l),
(376,56,l),
(392,0,l),
(462,0,l),
(462,450,l),
(356,450,l)
);
}
);
width = 526;
}
);
metricLeft = "=n";
metricRight = n;
unicode = 117;
},
{
glyphname = v;
lastChange = "2025-07-21 03:20:40 +0000";
layers = (
{
layerId = "4ACDF8EE-0327-43CC-9DA5-AB7134B4FF12";
shapes = (
{
closed = 1;
nodes = (
(180,1,l),
(272,1,l),
(447,450,l),
(349,450,l),
(204,70,l),
(248,70,l),
(113,450,l),
(5,450,l)
);
}
);
width = 452;
}
);
unicode = 118;
},
{
glyphname = w;
lastChange = "2025-07-21 03:20:40 +0000";
layers = (
{
layerId = "4ACDF8EE-0327-43CC-9DA5-AB7134B4FF12";
shapes = (
{
closed = 1;
nodes = (
(153,1,l),
(254,1,l),
(358,310,l),
(462,1,l),
(563,1,l),
(711,450,l),
(613,450,l),
(510,128,l),
(407,450,l),
(309,450,l),
(206,128,l),
(103,450,l),
(5,450,l)
);
}
);
width = 716;
}
);
unicode = 119;
},
{
glyphname = x;
lastChange = "2025-07-21 03:20:40 +0000";
layers = (
{
layerId = "4ACDF8EE-0327-43CC-9DA5-AB7134B4FF12";
shapes = (
{
closed = 1;
nodes = (
(344,1,l),
(457,1,l),
(134,450,l),
(21,450,l)
);
},
{
closed = 1;
nodes = (
(134,0,l),
(266,197,l),
(205,277,l),
(20,0,l)
);
},
{
closed = 1;
nodes = (
(274,197,l),
(433,450,l),
(319,450,l),
(214,277,l)
);
}
);
width = 477;
}
);
unicode = 120;
},
{
glyphname = y;
lastChange = "2025-07-21 03:20:40 +0000";
layers = (
{
layerId = "4ACDF8EE-0327-43CC-9DA5-AB7134B4FF12";
shapes = (
{
closed = 1;
nodes = (
(185,23,l),
(184,-20,l),
(5,451,l),
(116,451,l),
(247,71,l),
(205,71,l),
(339,451,l),
(446,451,l),
(231,-104,ls),
(209,-160,o),
(169,-199,o),
(98,-199,cs),
(45,-199,o),
(58,-198,o),
(10,-198,c),
(10,-110,l),
(10,-112,o),
(55,-110,o),
(87,-110,cs),
(123,-110,o),
(140,-90,o),
(152,-60,cs)
);
}
);
width = 451;
}
);
unicode = 121;
},
{
glyphname = z;
lastChange = "2025-07-21 03:20:40 +0000";
layers = (
{
layerId = "4ACDF8EE-0327-43CC-9DA5-AB7134B4FF12";
shapes = (
{
closed = 1;
nodes = (
(54,90,l),
(54,0,l),
(398,0,l),
(398,80,l),
(166,80,l),
(398,360,l),
(398,450,l),
(54,450,l),
(54,370,l),
(286,370,l)
);
}
);
width = 452;
}
);
metricLeft = "=n-10";
metricRight = "=|";
unicode = 122;
},
{
glyphname = zero;
lastChange = "2025-07-21 03:20:40 +0000";
layers = (
{
layerId = "4ACDF8EE-0327-43CC-9DA5-AB7134B4FF12";
shapes = (
{
closed = 1;
nodes = (
(140,496,o),
(202,570,o),
(288,570,cs),
(364,570,o),
(426,496,o),
(426,325,cs),
(426,154,o),
(364,80,o),
(288,80,cs),
(202,80,o),
(140,154,o),
(140,325,cs)
);
},
{
closed = 1;
nodes = (
(29,83,o),
(149,-16,o),
(288,-16,cs),
(418,-16,o),
(537,83,o),
(537,325,cs),
(537,567,o),
(418,666,o),
(288,666,cs),
(149,666,o),
(29,567,o),
(29,325,cs)
);
}
);
width = 566;
}
);
unicode = 48;
},
{
glyphname = one;
lastChange = "2025-07-21 03:20:40 +0000";
layers = (
{
layerId = "4ACDF8EE-0327-43CC-9DA5-AB7134B4FF12";
shapes = (
{
closed = 1;
nodes = (
(219,650,l),
(219,571,o),
(177,556,o),
(53,556,c),
(53,468,l),
(219,468,l),
(219,0,l),
(325,0,l),
(325,650,l)
);
}
);
width = 389;
}
);
metricRight = "=H";
unicode = 49;
},
{
glyphname = two;
lastChange = "2025-07-21 03:20:40 +0000";
layers = (
{
layerId = "4ACDF8EE-0327-43CC-9DA5-AB7134B4FF12";
shapes = (
{
closed = 1;
nodes = (
(42,66,l),
(42,0,l),
(439,0,l),
(439,95,l),
(186,95,l),
(373,347,l),
(499,506,o),
(416,666,o),
(255,666,cs),
(116,666,o),
(42,565,o),
(42,450,c),
(153,450,l),
(153,498,o),
(178,575,o),
(255,575,cs),
(346,575,o),
(349,480,o),
(310,428,c)
);
}
);
width = 481;
}
);
unicode = 50;
},
{
glyphname = seven;
lastChange = "2025-07-21 03:20:40 +0000";
layers = (
{
layerId = "4ACDF8EE-0327-43CC-9DA5-AB7134B4FF12";
shapes = (
{
closed = 1;
nodes = (
(533,650,l),
(133,650,l),
(133,562,l),
(422,562,l),
(219,0,l),
(319,0,l),
(533,584,l)
);
}
);
width = 600;
}
);
unicode = 55;
},
{
glyphname = eight;
lastChange = "2025-07-21 03:20:40 +0000";
layers = (
{
layerId = "4ACDF8EE-0327-43CC-9DA5-AB7134B4FF12";
shapes = (
{
closed = 1;
nodes = (
(140,241,o),
(182,320,o),
(288,320,cs),
(394,320,o),
(426,241,o),
(426,193,cs),
(426,145,o),
(384,75,o),
(288,75,cs),
(182,75,o),
(140,145,o),
(140,193,cs)
);
},
{
closed = 1;
nodes = (
(29,78,o),
(129,-16,o),
(288,-16,cs),
(438,-16,o),
(537,78,o),
(537,193,cs),
(537,308,o),
(438,411,o),
(288,411,cs),
(129,411,o),
(29,308,o),
(29,193,cs)
);
},
{
closed = 1;
nodes = (
(180,519,o),
(202,574,o),
(288,574,cs),
(364,574,o),
(386,519,o),
(386,490,cs),
(386,461,o),
(364,411,o),
(288,411,cs),
(202,411,o),
(180,461,o),
(180,490,cs)
);
},
{
closed = 1;
nodes = (
(69,404,o),
(149,320,o),
(288,320,cs),
(418,320,o),
(497,404,o),
(497,490,cs),
(497,581,o),
(418,665,o),
(288,665,cs),
(149,665,o),
(69,581,o),
(69,490,cs)
);
}
);
width = 600;
}
);
unicode = 56;
},
{
glyphname = period;
lastChange = "2025-07-21 03:20:40 +0000";
layers = (
{
layerId = "4ACDF8EE-0327-43CC-9DA5-AB7134B4FF12";
shapes = (
{
closed = 1;
nodes = (
(132,-16,o),
(157,9,o),
(157,51,cs),
(157,93,o),
(132,118,o),
(90,118,cs),
(48,118,o),
(23,93,o),
(23,51,cs),
(23,9,o),
(48,-16,o),
(90,-16,cs)
);
}
);
width = 180;
}
);
unicode = 46;
},
{
glyphname = comma;
lastChange = "2025-07-21 03:20:40 +0000";
layers = (
{
layerId = "4ACDF8EE-0327-43CC-9DA5-AB7134B4FF12";
shapes = (
{
closed = 1;
nodes = (
(124,-127,o),
(157,-55,o),
(157,34,cs),
(157,93,o),
(132,118,o),
(90,118,cs),
(48,118,o),
(23,93,o),
(23,51,cs),
(23,9,o),
(48,-16,o),
(74,-16,cs),
(81,-16,o),
(90,-14,o),
(98,-11,c),
(96,-48,o),
(77,-86,o),
(33,-86,c),
(33,-127,l)
);
}
);
width = 179;
}
);
unicode = 44;
},
{
glyphname = asterisk;
lastChange = "2025-07-21 03:20:40 +0000";
layers = (
{
layerId = "4ACDF8EE-0327-43CC-9DA5-AB7134B4FF12";
shapes = (
{
closed = 1;
nodes = (
(297,650,l),
(191,650,l),
(206,484,l),
(52,550,l),
(19,448,l),
(183,412,l),
(72,285,l),
(159,223,l),
(244,367,l),
(330,222,l),
(416,285,l),
(305,411,l),
(469,448,l),
(436,549,l),
(282,483,l)
);
}
);
width = 486;
}
);
unicode = 42;
},
{
glyphname = hyphen;
lastChange = "2025-07-21 03:20:40 +0000";
layers = (
{
layerId = "4ACDF8EE-0327-43CC-9DA5-AB7134B4FF12";
shapes = (
{
closed = 1;
nodes = (
(20,243,l),
(331,243,l),
(331,329,l),
(20,329,l)
);
}
);
width = 351;
}
);
unicode = 45;
},
{
glyphname = bracketleft;
lastChange = "2025-07-21 03:20:40 +0000";
layers = (
{
layerId = "4ACDF8EE-0327-43CC-9DA5-AB7134B4FF12";
shapes = (
{
closed = 1;
nodes = (
(222,-148,l),
(222,-60,l),
(159,-60,ls),
(126,-60,o),
(116,-45,o),
(116,-19,cs),
(116,572,ls),
(116,598,o),
(126,613,o),
(159,613,cs),
(222,613,l),
(222,701,l),
(129,701,ls),
(56,701,o),
(10,669,o),
(10,582,cs),
(10,-29,ls),
(10,-116,o),
(56,-148,o),
(129,-148,cs)
);
}
);
width = 232;
}
);
unicode = 91;
},
{
glyphname = bracketright;
lastChange = "2025-07-21 03:20:40 +0000";
layers = (
{
layerId = "4ACDF8EE-0327-43CC-9DA5-AB7134B4FF12";
shapes = (
{
closed = 1;
nodes = (
(176,-148,o),
(222,-116,o),
(222,-29,cs),
(222,582,ls),
(222,669,o),
(176,701,o),
(103,701,cs),
(10,701,l),
(10,613,l),
(73,613,ls),
(106,613,o),
(116,598,o),
(116,572,cs),
(116,-19,ls),
(116,-45,o),
(106,-60,o),
(73,-60,cs),
(10,-60,l),
(10,-148,l),
(103,-148,ls)
);
}
);
width = 232;
}
);
unicode = 93;
},
